<svg height="512pt" viewBox="-3 0 512 512" width="512pt" xmlns="http://www.w3.org/2000/svg"><path d="m503.007812 216.378906c7.664063-20.652344 3.703126-44.046875-10.34375-61.054687-3.929687-4.761719-5.457031-11.070313-4.183593-17.308594 2.886719-14.148437 1.886719-28.867187-2.890625-42.5625-1.363282-3.910156-5.640625-5.976563-9.550782-4.609375-3.910156 1.363281-5.976562 5.640625-4.613281 9.550781 3.886719 11.148438 4.703125 23.121094 2.355469 34.621094-2.179688 10.707031.484375 21.589844 7.320312 29.863281 10.648438 12.894532 13.652344 30.628906 7.84375 46.28125-2.851562 7.679688-7.570312 14.367188-13.757812 19.566406-3.945312-2.261718-8.21875-3.75-12.597656-4.425781 0 0 30.207031-32.03125 5.234375-57.003906-5.710938-5.710937-12.851563-9.136719-20.28125-10.277344 13.722656-14.074219 14.734375-37.3125 1.082031-50.964843-25.214844-25.214844-52.824219-.820313-52.824219-.820313-1.171875-7.640625-4.726562-14.6875-10.292969-20.257813-14.273437-14.269531-37.496093-14.269531-51.765624 0l-107.695313 107.695313c-.394531-3.101563-1.710937-13.453125-1.730469-13.582031-2.105468-15.070313-13.191406-26.132813-28.246094-28.183594-15.03125-2.050781-28.652343 5.632812-34.703124 19.570312-15.128907 34.84375-30.234376 85.5-22.367188 137.910157-21.921875-8.039063-37.109375-29.195313-37.109375-53.121094 0-15.78125 6.671875-30.960937 18.308594-41.648437 10.730469-9.851563 16.28125-23.382813 15.234375-37.121094-1.726563-22.625 6.6875-44.5625 23.089844-60.1875 15.832031-15.085938 37.414062-22.507813 59.210937-20.367188 14.078125 1.375 27.675781-4.359375 36.371094-15.363281 9.613281-12.171875 22.707031-20.425781 37.855469-23.871094 15.664062-3.566406 32.105468-1.40625 46.304687 6.074219 12.753906 6.726562 27.675781 6.714844 39.914063-.023438 20.277343-11.167968 45.203124-10.746093 65.058593 1.101563 5.078125 3.027344 9.703125 6.707031 13.746094 10.929687 2.867187 2.992188 7.613281 3.09375 10.605469.230469 2.992187-2.867187 3.09375-7.613281.230468-10.605469-4.980468-5.195312-10.664062-9.71875-16.898437-13.4375-23.511719-14.027343-52.808594-15.019531-77.207031-2.808593-1.183594-6.820313-4.269532-13.21875-9.066406-18.367188-6.84375-7.351562-16.128907-11.496093-26.152344-11.671875-9.996094-.148437-19.449219 3.628906-26.535156 10.714844l-.171876.167969c-1.164062-7.515625-4.640624-14.667969-10.261718-20.289063-6.914063-6.914062-16.105469-10.722656-25.882813-10.722656-9.777343 0-18.96875 3.808594-25.882812 10.722656l-82.851563 82.851563s-15.527344 6.753906-25.34375 20.878906c-.203125-1.609375-1.207031-9.488281-1.226562-9.617187-2.105469-15.070313-13.191406-26.132813-28.242188-28.183594-15.03125-2.046875-28.65625 5.632812-34.707031 19.570312-16.976563 39.105469-33.953125 98.117188-18.429687 157.179688 2.925781 11.144531-.433594 23.246094-8.773438 31.582031l-35.230469 35.234375c-19.941406 19.945312-19.941406 52.398438 0 72.34375l28.222657 28.222656c11.410156 11.34375 20.234374 11.34375 22.699218 6.039063 1.746094-3.757813.480469-8.203125-3.195312-10.113281-3.269532-1.699219-6.261719-3.898438-8.898438-6.535157l-28.21875-28.222656c-14.097656-14.09375-14.097656-37.03125 0-51.128906l35.226563-35.230469c12.097656-12.097656 16.953125-29.722656 12.671875-46.003906-14.429688-54.914063 1.652344-110.460938 17.683594-147.394532 4.007812-9.230468 12.402343-11.570312 18.921874-10.679687 6.535157.890625 14.019532 5.402344 15.410157 15.367187.035156.242188 2.636719 20.703126 3.460937 27.070313-6.683594 14.027344-9.6875 29.710937-8.464844 45.683594.695313 9.121093-3.105468 18.210937-10.421874 24.933593-14.722657 13.519532-23.164063 32.726563-23.164063 52.695313 0 33.246094 23.1875 62.265625 55.386719 69.710937.21875.894532 7.964844 18.226563-8.113282 34.261719l-35.226562 35.234375c-9.664062 9.664063-14.984375 22.507813-14.984375 36.171875 0 13.664063 5.320313 26.511719 14.984375 36.175781l28.21875 28.21875c9.972656 9.972657 23.070312 14.960938 36.171875 14.960938 13.097656 0 26.199219-4.988281 36.167969-14.960938l43.703125-43.699218c6.59375-6.597656 15.722656-10.050782 25.039062-9.492188 34.394531 2.082032 68.304688-10.328125 93.164063-34.089844.195312-.160156.386718-.335937.574218-.519531l120.886719-120.894531c6.914063-6.914062 10.71875-16.105469 10.71875-25.882812 0-7.910157-2.492187-15.433594-7.101562-21.683594 7.367187-6.644532 13.019531-14.953125 16.527343-24.398438zm-164.777343-181.253906c5.914062-.117188 11.394531 2.554688 15.441406 6.898438 3.257813 3.496093 5.167969 8.003906 5.539063 12.761718-4.714844.148438-9.523438-.9375-13.957032-3.273437-7.71875-4.070313-15.980468-6.839844-24.457031-8.292969 0 0 6.191406-7.871094 17.433594-8.09375zm-77.859375-13.796875c12.300781-12.304687 26.46875-4.082031 30.550781 0 5.644531 5.644531 7.652344 13.894531 5.453125 21.386719-25.589844 3.542968-42.449219 15.890625-54.042969 30.5625-5.429687 6.875-14.292969 10.597656-23.132812 9.738281-7.023438-.691406-14.03125-.546875-20.890625.378906zm211.886718 256.410156-120.449218 120.453125c-.125.105469-.246094.214844-.367188.332032-21.878906 21.140624-51.871094 32.207031-82.292968 30.351562-13.601563-.828125-26.925782 4.222656-36.558594 13.855469l-43.699219 43.703125c-14.097656 14.097656-37.03125 14.097656-51.128906 0l-28.21875-28.222656c-6.832031-6.828126-10.589844-15.90625-10.589844-25.566407 0-9.65625 3.761719-18.734375 10.589844-25.566406l35.230469-35.230469c12.09375-12.09375 16.949218-29.722656 12.667968-46.003906-14.429687-54.914062 1.652344-110.460938 17.683594-147.394531 3.492188-8.046875 9.585938-11.6875 18.921875-10.679688 6.558594.707031 14.019531 5.402344 15.410156 15.371094.035157.242187 2.847657 22.367187 3.660157 28.597656.367187 2.835938 2.316406 5.214844 5.019531 6.132813 2.707031.921875 5.699219.226562 7.71875-1.796875l118.492187-118.492188c8.421875-8.421875 22.125-8.421875 30.550782 0 4.078124 4.082031 11.996093 18.558594 0 30.554688l-86.566407 86.566406c-2.925781 2.933594-2.925781 7.679687 0 10.609375 1.464844 1.464844 6.753907 3.851562 10.609375 0l107.601563-107.609375c4.183593-4.183594 18.875-11.660156 31.105469.570313 8.117187 8.121093 7.355468 22.074218-1.046876 30.476562l-107.109374 107.113281c-2.929688 2.929688-2.929688 7.679688 0 10.609375 1.464843 1.464844 6.753906 3.851563 10.609374 0 0 0 86.003907-86.011718 86.5625-86.570312 8.421876-8.421875 22.125-8.421875 30.550782 0 8.425781 8.421875 8.425781 22.128906 0 30.554687l-86.5625 86.566407c-2.929688 2.929687-2.929688 7.679687 0 10.609374 1.464844 1.464844 5.917968 4.6875 10.605468 0l60.480469-60.480468c8.425781-8.394532 22.105469-8.382813 30.519531.03125 13.070313 13.070312 4.078126 26.472656 0 30.554687zm0 0"/></svg>